<?xml version="1.0" encoding="UTF-8" standalone="no"?>
<!DOCTYPE svg PUBLIC "-//W3C//DTD SVG 1.1//EN"
 "http://www.w3.org/Graphics/SVG/1.1/DTD/svg11.dtd">
<!-- Generated by graphviz version 2.43.0 (0)
 -->
<!-- Title: pastafarianism Pages: 1 -->
<svg width="144pt" height="116pt"
 viewBox="0.00 0.00 144.33 116.00" xmlns="http://www.w3.org/2000/svg" xmlns:xlink="http://www.w3.org/1999/xlink">
<g id="graph0" class="graph" transform="scale(1 1) rotate(0) translate(4 112)">
<title>pastafarianism</title>
<polygon fill="white" stroke="transparent" points="-4,4 -4,-112 140.33,-112 140.33,4 -4,4"/>
<!-- Selector -->
<g id="node1" class="node">
<title>Selector</title>
<polygon fill="cyan" stroke="black" points="99.24,-82.54 99.24,-97.46 79.18,-108 50.82,-108 30.76,-97.46 30.76,-82.54 50.82,-72 79.18,-72 99.24,-82.54"/>
<text text-anchor="middle" x="65" y="-87.8" font-family="Times,serif" font-size="9.00">Selector</text>
</g>
<!-- FFS -->
<g id="node2" class="node">
<title>FFS</title>
<ellipse fill="gray" stroke="black" cx="27" cy="-18" rx="27" ry="18"/>
<text text-anchor="middle" x="27" y="-15.8" font-family="Times,serif" font-size="9.00">FFS</text>
</g>
<!-- Selector&#45;&gt;FFS -->
<g id="edge1" class="edge">
<title>Selector&#45;&gt;FFS</title>
<path fill="none" stroke="black" d="M55.61,-71.7C51.1,-63.4 45.63,-53.31 40.67,-44.19"/>
<polygon fill="black" stroke="black" points="43.61,-42.26 35.76,-35.14 37.46,-45.6 43.61,-42.26"/>
</g>
<!-- Running -->
<g id="node3" class="node">
<title>Running</title>
<ellipse fill="gray" stroke="black" cx="104" cy="-18" rx="32.16" ry="18"/>
<text text-anchor="middle" x="104" y="-15.8" font-family="Times,serif" font-size="9.00">Running</text>
</g>
<!-- Selector&#45;&gt;Running -->
<g id="edge2" class="edge">
<title>Selector&#45;&gt;Running</title>
<path fill="none" stroke="black" d="M74.64,-71.7C79.19,-63.52 84.72,-53.6 89.75,-44.58"/>
<polygon fill="black" stroke="black" points="92.93,-46.06 94.74,-35.62 86.81,-42.65 92.93,-46.06"/>
</g>
</g>
</svg>
